<?xml version="1.0"?>
<!DOCTYPE svg PUBLIC "-//W3C//DTD SVG 1.1//EN" "http://www.w3.org/Graphics/SVG/1.1/DTD/svg11.dtd">
<svg width="101.83475121072699mm" height="23.27945643484491mm" viewBox="0 0 101.83475121072699 23.27945643484491" xmlns="http://www.w3.org/2000/svg" version="1.1">
<g id="Sketch001" transform="translate(0.793097,22.281077) scale(1,-1)">
<path id="Sketch001_w0000"  d="M 9.050294960904205 10.321072976640654 L 7.066320996644402 10.321072976640654 L 7.066320996644402 5.1639816946824375 A 8.06343 8.06343 0 1 1 9.3302 21.1311L 5.608163455705476 21.131137338982573 L 0.2052826169343165 16.08113733898258 L 0.2052826169343165 0.0 L 5.809592 0.0 L 5.809592 16.015692611645143 L 8.888275530031077 16.015692611645143 A 2.94935 2.94935 0 0 0 9.05029 10.3211" stroke="#000000" stroke-width="0.35 px" style="stroke-width:0.35;stroke-miterlimit:4;stroke-dasharray:none;fill:none;fill-opacity:1;fill-rule: evenodd"/>
<path id="Sketch001_w0001"  d="M 67.30389816122535 15.965995517832285 C 62.098309 16.191984 60.536568 14.012192 59.94530833333334 12.178810166666668 C 59.35404866666667 10.345428333333334 59.73327033333334 8.858456666666667 60.66644841666667 7.5647313333333335 C 61.5996265 6.271006 63.086761 5.170527 67.363525 5.130735 L 67.363525 0.0 L 64.118454 0.0 C 59.316757 1.105113 57.4559535 2.766544 56.20036541666667 4.446440833333334 C 54.944777333333334 6.126337666666667 54.294404666666665 7.824700333333334 54.1542845 9.780973 C 54.01416433333333 11.737245666666666 54.38429666666667 13.951428333333332 55.818111583333334 16.149254666666664 C 57.251926499999996 18.347081 59.749424 20.528551 65.6586 21.01599551783229 L 72.7067789999965 21.01599551783229 L 67.30389816122535 15.965995517832285 " stroke="#000000" stroke-width="0.35 px" style="stroke-width:0.35;stroke-miterlimit:4;stroke-dasharray:none;fill:none;fill-opacity:1;fill-rule: evenodd"/>
<path id="Sketch001_w0002"  d="M 38.950399206568406 21.124160251751007 L 24.6207721065615 21.124160251751007 L 19.21789126779034 16.074160251751003 L 19.21789126779034 0.0 L 33.50711211091231 0.0 L 33.50711211091231 5.05 L 24.537624000000292 5.05 L 24.537624000000292 7.978263000001743 L 33.5071121109123 7.978263000001743 L 33.5071121109123 13.028263000001743 L 24.537624000000292 13.028263000001743 L 24.537624000000292 16.074160251751003 L 33.547518367797245 16.074160251751003 L 38.950399206568406 21.124160251751007 " stroke="#000000" stroke-width="0.35 px" style="stroke-width:0.35;stroke-miterlimit:4;stroke-dasharray:none;fill:none;fill-opacity:1;fill-rule: evenodd"/>
<path id="Sketch001_w0003"  d="M 42.68742805497772 21.282696607183595 L 37.28454721620656 16.23269660718359 L 42.935597014286216 16.23269660718359 L 42.935597014286216 0.0 L 48.416264767464526 0.0 L 48.416264767464526 16.23269660718359 L 49.75142098361086 16.23269660718359 L 55.154301822382024 21.282696607183595 L 42.68742805497772 21.282696607183595 " stroke="#000000" stroke-width="0.35 px" style="stroke-width:0.35;stroke-miterlimit:4;stroke-dasharray:none;fill:none;fill-opacity:1;fill-rule: evenodd"/>
<path id="Sketch001_w0004"  d="M 76.57425187716227 21.071086885389175 L 71.17137103839111 16.02108688538917 L 76.82242083647077 16.02108688538917 L 76.82242083647077 0.0 L 82.30308858964908 0.0 L 82.30308858964908 16.021086885389167 L 83.63824480579542 16.021086885389167 L 89.04112564456658 21.071086885389175 L 76.57425187716227 21.071086885389175 " stroke="#000000" stroke-width="0.35 px" style="stroke-width:0.35;stroke-miterlimit:4;stroke-dasharray:none;fill:none;fill-opacity:1;fill-rule: evenodd"/>
<path id="Sketch001_w0005"  d="M 88.24735886355924 16.026385560937285 L 93.6502397023304 21.076385560937293 L 93.682304 5.090163 L 100.043274 5.090163 L 100.043274 0.0 L 88.24735886355924 0.0 L 88.24735886355924 16.026385560937285 " stroke="#000000" stroke-width="0.35 px" style="stroke-width:0.35;stroke-miterlimit:4;stroke-dasharray:none;fill:none;fill-opacity:1;fill-rule: evenodd"/>
<title>b'Sketch001'</title>
</g>
</svg>